HIERARCHY
ROOT hip
{
  OFFSET 0 0 0
  CHANNELS 6 Xposition Yposition Zposition Zrotation Yrotation Xrotation
  JOINT abdomen
  {
    OFFSET 0 20.6881 -0.73152
    CHANNELS 3 Zrotation Xrotation Yrotation
    JOINT chest
    {
      OFFSET 0 11.7043 -0.48768
      CHANNELS 3 Zrotation Xrotation Yrotation
      JOINT neck
      {
        OFFSET 0 22.1894 -2.19456
        CHANNELS 3 Zrotation Xrotation Yrotation
        JOINT head
        {
          OFFSET -0.24384 7.07133 1.2192
          CHANNELS 3 Zrotation Xrotation Yrotation
          JOINT leftEye
          {
            OFFSET 4.14528 8.04674 8.04672
            CHANNELS 3 Zrotation Xrotation Yrotation
            End Site
            {
              OFFSET 1 0 0
            }
          }
          JOINT rightEye
          {
            OFFSET -3.6576 8.04674 8.04672
            CHANNELS 3 Zrotation Xrotation Yrotation
            End Site
            {
              OFFSET 1 0 0
            }
          }
        }
      }
      JOINT rCollar
      {
        OFFSET -2.68224 19.2634 -4.8768
        CHANNELS 3 Zrotation Xrotation Yrotation
        JOINT rShldr
        {
          OFFSET -8.77824 -1.95073 1.46304
          CHANNELS 3 Zrotation Xrotation Yrotation
          JOINT rForeArm
          {
            OFFSET -28.1742 -1.7115 0.48768
            CHANNELS 3 Zrotation Xrotation Yrotation
            JOINT rHand
            {
              OFFSET -22.5879 0.773209 7.07136
              CHANNELS 3 Zrotation Xrotation Yrotation
              JOINT rThumb1
              {
                OFFSET -1.2192 -0.487915 3.41376
                CHANNELS 3 Zrotation Xrotation Yrotation
                JOINT rThumb2
                {
                  OFFSET -3.37035 -0.52449 3.41376
                  CHANNELS 3 Zrotation Xrotation Yrotation
                  End Site
                  {
                    OFFSET -1.78271 -1.18214 1.43049
                  }
                }
              }
              JOINT rIndex1
              {
                OFFSET -7.75947 0.938293 5.60832
                CHANNELS 3 Zrotation Xrotation Yrotation
                JOINT rIndex2
                {
                  OFFSET -2.54057 -0.884171 1.56538
                  CHANNELS 3 Zrotation Xrotation Yrotation
                  End Site
                  {
                    OFFSET -1.62519 -0.234802 1.16502
                  }
                }
              }
              JOINT rMid1
              {
                OFFSET -8.24714 1.18213 3.41376
                CHANNELS 3 Zrotation Xrotation Yrotation
                JOINT rMid2
                {
                  OFFSET -3.10165 -0.590103 1.0647
                  CHANNELS 3 Zrotation Xrotation Yrotation
                  End Site
                  {
                    OFFSET -2.48547 -0.328903 0.83742
                  }
                }
              }
              JOINT rRing1
              {
                OFFSET -8.82822 0.546677 1.51678
                CHANNELS 3 Zrotation Xrotation Yrotation
                JOINT rRing2
                {
                  OFFSET -2.60934 -0.819778 -0.0198488
                  CHANNELS 3 Zrotation Xrotation Yrotation
                  End Site
                  {
                    OFFSET -2.33842 -0.294052 0.168128
                  }
                }
              }
              JOINT rPinky1
              {
                OFFSET -8.27202 -0.0477905 -0.4584
                CHANNELS 3 Zrotation Xrotation Yrotation
                JOINT rPinky2
                {
                  OFFSET -1.82734 -0.647385 -0.700984
                  CHANNELS 3 Zrotation Xrotation Yrotation
                  End Site
                  {
                    OFFSET -1.69225 -0.51767 -0.607171
                  }
                }
              }
            }
          }
        }
      }
      JOINT lCollar
      {
        OFFSET 2.68224 19.2634 -4.8768
        CHANNELS 3 Zrotation Xrotation Yrotation
        JOINT lShldr
        {
          OFFSET 8.77824 -1.95073 1.46304
          CHANNELS 3 Zrotation Xrotation Yrotation
          JOINT lForeArm
          {
            OFFSET 28.1742 -1.7115 0.48768
            CHANNELS 3 Zrotation Xrotation Yrotation
            JOINT lHand
            {
              OFFSET 22.5879 0.773209 7.07136
              CHANNELS 3 Zrotation Xrotation Yrotation
              JOINT lThumb1
              {
                OFFSET 1.2192 -0.487915 3.41376
                CHANNELS 3 Zrotation Xrotation Yrotation
                JOINT lThumb2
                {
                  OFFSET 3.37035 -0.52449 3.41376
                  CHANNELS 3 Zrotation Xrotation Yrotation
                  End Site
                  {
                    OFFSET 1.78271 -1.18214 1.43049
                  }
                }
              }
              JOINT lIndex1
              {
                OFFSET 7.75947 0.938293 5.60832
                CHANNELS 3 Zrotation Xrotation Yrotation
                JOINT lIndex2
                {
                  OFFSET 2.54057 -0.884171 1.56538
                  CHANNELS 3 Zrotation Xrotation Yrotation
                  End Site
                  {
                    OFFSET 1.62519 -0.234802 1.16502
                  }
                }
              }
              JOINT lMid1
              {
                OFFSET 8.24714 1.18213 3.41376
                CHANNELS 3 Zrotation Xrotation Yrotation
                JOINT lMid2
                {
                  OFFSET 3.10165 -0.590103 1.0647
                  CHANNELS 3 Zrotation Xrotation Yrotation
                  End Site
                  {
                    OFFSET 2.48547 -0.328903 0.83742
                  }
                }
              }
              JOINT lRing1
              {
                OFFSET 8.82822 0.546677 1.51678
                CHANNELS 3 Zrotation Xrotation Yrotation
                JOINT lRing2
                {
                  OFFSET 2.60934 -0.819778 -0.0198488
                  CHANNELS 3 Zrotation Xrotation Yrotation
                  End Site
                  {
                    OFFSET 2.33842 -0.294052 0.168128
                  }
                }
              }
              JOINT lPinky1
              {
                OFFSET 8.27202 -0.0477905 -0.4584
                CHANNELS 3 Zrotation Xrotation Yrotation
                JOINT lPinky2
                {
                  OFFSET 1.82734 -0.647385 -0.700984
                  CHANNELS 3 Zrotation Xrotation Yrotation
                  End Site
                  {
                    OFFSET 1.69225 -0.51767 -0.607171
                  }
                }
              }
            }
          }
        }
      }
    }
  }
  JOINT rButtock
  {
    OFFSET -8.77824 4.35084 1.2192
    CHANNELS 3 Zrotation Xrotation Yrotation
    JOINT rThigh
    {
      OFFSET 0 -1.70687 -2.19456
      CHANNELS 3 Zrotation Xrotation Yrotation
      JOINT rShin
      {
        OFFSET 0 -36.8199 0.73152
        CHANNELS 3 Zrotation Xrotation Yrotation
        JOINT rFoot
        {
          OFFSET 0.73152 -45.1104 -5.12064
          CHANNELS 3 Zrotation Xrotation Yrotation
          End Site
          {
            OFFSET -1.1221 -3.69964 12.103
          }
        }
      }
    }
  }
  JOINT lButtock
  {
    OFFSET 8.77824 4.35084 1.2192
    CHANNELS 3 Zrotation Xrotation Yrotation
    JOINT lThigh
    {
      OFFSET 0 -1.70687 -2.19456
      CHANNELS 3 Zrotation Xrotation Yrotation
      JOINT lShin
      {
        OFFSET 0 -36.8199 0.73152
        CHANNELS 3 Zrotation Xrotation Yrotation
        JOINT lFoot
        {
          OFFSET -0.73152 -45.1104 -5.12064
          CHANNELS 3 Zrotation Xrotation Yrotation
          End Site
          {
            OFFSET 1.1221 -3.69964 12.103
          }
        }
      }
    }
  }
}
MOTION
Frames:	4
Frame Time:	0.03333
-115.1096832494192 46.45408363973768 -48.64976817043984 -13.371609687805176 -23.881738662719727 13.691508293151855 11.002123832702637 8.697955131530762 4.987645626068115 2.490077257156372 -8.041176795959473 1.3345550298690796 -0.6956353783607483 12.901065826416016 5.830264568328857 3.8569555282592773 -25.955453872680664 10.67806625366211 -0.41921037435531616 -0.4701623320579529 -0.43475624918937683 0.39811015129089355 0.034095555543899536 0.09273584932088852 -0.4822157919406891 -0.11746081709861755 0.2695252299308777 101.16757202148438 43.9240608215332 -52.20082473754883 -27.23471450805664 -43.58406066894531 87.76143646240234 -3.279527187347412 -45.62644577026367 -8.484941482543945 0.7176805734634399 -0.5651034116744995 0.31358450651168823 -0.5246042013168335 0.07540259510278702 -0.15773235261440277 -0.46464410424232483 -0.45502716302871704 0.8002355098724365 7.891974449157715 5.235404968261719 0.5754539966583252 0.5266791582107544 0.40998575091362 0.17702925205230713 2.27262020111084 0.5793059468269348 1.0432711839675903 -0.3021579086780548 0.1197889894247055 -0.5611886978149414 10.461580276489258 1.1429674625396729 0.6711247563362122 0.21357309818267822 -0.027407512068748474 -0.28675925731658936 2.4962666034698486 -0.9484063982963562 -0.7832870483398438 -0.48438307642936707 0.24368295073509216 0.3662804067134857 -42.395694732666016 19.5959415435791 -38.28615951538086 14.124579429626465 -5.829025745391846 -23.44732093811035 0.37512505054473877 34.617347717285156 -4.925123691558838 0.20781180262565613 0.4153344929218292 -0.30491095781326294 0.1973440796136856 -1.0562844276428223 0.11299996823072433 -0.1110130324959755 -0.006273727864027023 -0.1709252893924713 -7.458083629608154 5.706161975860596 -0.2652032971382141 -0.1737385094165802 -0.19490580260753632 0.30827316641807556 -2.9132182598114014 0.6482857465744019 -0.062471307814121246 -0.45390474796295166 0.6659666299819946 0.09628978371620178 -11.134134292602539 -0.2306845337152481 -0.18858468532562256 0.6567915678024292 -0.5243735313415527 -0.20815050601959229 -2.544099807739258 -0.6899996399879456 1.012974500656128 -0.2959308922290802 0.10040547698736191 -0.021634165197610855 -11.009833335876465 7.907258987426758 -1.0732288360595703 -0.23054037988185883 36.22426986694336 2.4956395626068115 -7.922222137451172 -16.052581787109375 -28.77897834777832 0.28927236795425415 -0.3862096667289734 -0.062003057450056076 81.80401611328125 -57.28338623046875 70.96409606933594 4.237332820892334 79.0831527709961 -3.98410701751709 0.024185407906770706 -2.406794786453247 -1.3140628337860107
-117.92776145780194 46.58469393214125 -49.379459050700284 -12.965190887451172 -23.556453704833984 13.540555953979492 10.651155471801758 8.797246932983398 4.887697696685791 2.493485450744629 -8.015109062194824 1.208203911781311 -0.7652429938316345 12.926244735717773 5.6305108070373535 3.8647544384002686 -26.191940307617188 10.365055084228516 -0.39876624941825867 -0.48471418023109436 -0.5227308869361877 0.42015326023101807 0.06654033809900284 -0.023583753034472466 -0.44400933384895325 -0.11526009440422058 0.15390250086784363 100.743408203125 43.94386291503906 -51.595703125 -27.238340377807617 -43.31208801269531 87.26934051513672 -3.1066837310791016 -44.88300323486328 -8.337300300598145 0.7047439813613892 -0.6003895401954651 0.2054271101951599 -0.5230673551559448 0.11229204386472702 -0.2628081440925598 -0.4935591220855713 -0.45830899477005005 0.7245137095451355 7.882408618927002 5.249571323394775 0.4983605146408081 0.5552974939346313 0.3923127353191376 0.012223088182508945 2.291581869125366 0.576445460319519 0.9342260956764221 -0.32128965854644775 0.09000488370656967 -0.6733074188232422 10.457524299621582 1.162431001663208 0.5741815567016602 0.2034345418214798 -0.04563610255718231 -0.41424211859703064 2.5217204093933105 -0.9261354804039001 -0.8870143890380859 -0.4996865391731262 0.18180447816848755 0.2819134593009949 -42.35804748535156 20.199243545532227 -38.40679168701172 14.17232894897461 -5.843503952026367 -23.623376846313477 0.3532406687736511 34.0432243347168 -4.918425559997559 0.1998327374458313 0.41281116008758545 -0.4030492603778839 0.1784030944108963 -1.0428417921066284 0.04624272882938385 -0.13931795954704285 -0.01819477044045925 -0.22862227261066437 -7.413477897644043 5.685615062713623 -0.32787302136421204 -0.1755780726671219 -0.2289162278175354 0.2513265311717987 -2.907510995864868 0.6840158104896545 -0.13919928669929504 -0.4491910934448242 0.6448124647140503 0.022013088688254356 -11.139415740966797 -0.26252880692481995 -0.2956046760082245 0.6501131057739258 -0.5054202675819397 -0.3225743770599365 -2.5307490825653076 -0.6846107244491577 0.8876053094863892 -0.24025912582874298 0.10860372334718704 -0.15126065909862518 -10.940495491027832 7.413331508636475 -1.1708738803863525 -0.22325940430164337 36.931331634521484 2.4065215587615967 -7.867558479309082 -15.950211524963379 -28.830089569091797 0.32927805185317993 -0.4014205038547516 -0.18707238137722015 80.63042449951172 -57.626129150390625 69.791259765625 3.9866960048675537 78.60607147216797 -3.8478145599365234 0.06889994442462921 -2.4511125087738037 -1.0538896322250366
-120.72057394267114 46.46789086714487 -50.17064276438859 -13.381937980651855 -24.370269775390625 13.540711402893066 11.120105743408203 8.719454765319824 5.117794036865234 2.2484560012817383 -8.019087791442871 1.3839118480682373 -0.6267727613449097 12.829805374145508 6.001307010650635 3.70955753326416 -26.111726760864258 10.912762641906738 -0.3461197018623352 -0.47562968730926514 -0.3974893093109131 0.43625006079673767 0.07329245656728745 0.16721926629543304 -0.4913541078567505 -0.06244172900915146 0.34280821681022644 101.45812225341797 43.84108352661133 -52.274539947509766 -27.36998176574707 -43.42567825317383 87.64009094238281 -3.404698610305786 -45.36957550048828 -8.491902351379395 0.684581995010376 -0.6553680896759033 0.3468421697616577 -0.5241836309432983 0.05520535632967949 -0.08836720883846283 -0.5429438352584839 -0.5003954172134399 0.8836739659309387 7.928566932678223 5.237411975860596 0.5797041058540344 0.5450847744941711 0.40407735109329224 0.13096795976161957 2.3288066387176514 0.5006136894226074 1.033449411392212 -0.30764108896255493 0.1257515698671341 -0.5518755316734314 10.518393516540527 1.171535611152649 0.7208612561225891 0.13594330847263336 -0.04378873109817505 -0.3131261169910431 2.552706003189087 -0.9786207675933838 -0.7929906249046326 -0.5003011226654053 0.29020026326179504 0.3782350718975067 -42.648536682128906 19.469650268554688 -38.26426315307617 14.035930633544922 -5.845225811004639 -23.101547241210938 0.3901976943016052 34.64536666870117 -4.889227390289307 0.18647654354572296 0.4254107177257538 -0.3203279972076416 0.22874943912029266 -1.0098445415496826 0.20145796239376068 -0.12304890155792236 0.024328013882040977 -0.16738925874233246 -7.487391471862793 5.675593376159668 -0.20798996090888977 -0.1780661642551422 -0.23358498513698578 0.42987433075904846 -2.8699066638946533 0.6805701851844788 0.021295567974448204 -0.4228326678276062 0.6057256460189819 0.13074225187301636 -11.158317565917969 -0.2754385471343994 -0.09828915446996689 0.6780359148979187 -0.5195044279098511 -0.1956883668899536 -2.5812079906463623 -0.6962063908576965 1.016395926475525 -0.3298887312412262 0.1277436912059784 0.024587159976363182 -10.986353874206543 7.721104145050049 -1.0228930711746216 -0.21241946518421173 36.47241973876953 2.5624334812164307 -8.23478889465332 -16.070476531982422 -29.07590675354004 0.3377848267555237 -0.42643868923187256 -0.033685680478811264 82.03146362304688 -56.98788070678711 71.3645248413086 4.660923004150391 79.0669174194336 -4.331258296966553 -0.15889136493206024 -2.134511947631836 -1.1915602684020996
-123.5065760886076 46.17243737421762 -51.06255447941824 -14.049872398376465 -25.388912200927734 13.55691146850586 11.784130096435547 8.556815147399902 5.316528797149658 2.031846523284912 -8.05759334564209 1.5426510572433472 -0.4260421395301819 12.749037742614746 6.398380756378174 3.5695667266845703 -25.866363525390625 11.577827453613281 -0.2949925363063812 -0.4570190906524658 -0.2878133952617645 0.4292476773262024 0.06161539629101753 0.33916983008384705 -0.5516858696937561 -0.0019016694277524948 0.5082132816314697 102.45972442626953 43.85183334350586 -53.51259231567383 -27.446613311767578 -43.84555435180664 88.30120086669922 -3.8374011516571045 -46.47593688964844 -8.86666488647461 0.6561833024024963 -0.6597737073898315 0.4799327254295349 -0.5702385306358337 7.970036676852033e-05 0.0543786883354187 -0.5502743124961853 -0.5522608757019043 0.9957015514373779 7.953516006469727 5.2404680252075195 0.5975425839424133 0.5164476037025452 0.41572967171669006 0.27382469177246094 2.335996150970459 0.43548834323883057 1.1285498142242432 -0.2729870080947876 0.1833048164844513 -0.4311974048614502 10.554165840148926 1.1567174196243286 0.8315123915672302 0.07592359185218811 -0.01090502180159092 -0.23483897745609283 2.5409996509552 -1.0448492765426636 -0.7143647074699402 -0.48394590616226196 0.4417983591556549 0.47865697741508484 -42.969322204589844 18.159770965576172 -38.11693572998047 13.872834205627441 -5.758355140686035 -22.606008529663086 0.45456627011299133 35.75493621826172 -5.003000736236572 0.17402420938014984 0.4376193583011627 -0.2594262659549713 0.2638225555419922 -0.9890828728675842 0.29439663887023926 -0.08001528680324554 0.07197771966457367 -0.17748473584651947 -7.576756000518799 5.695131778717041 -0.1435028612613678 -0.1676713079214096 -0.22750337421894073 0.5485868453979492 -2.8496222496032715 0.6310363411903381 0.10895941406488419 -0.4131281077861786 0.6056756377220154 0.21602492034435272 -11.15058422088623 -0.2820965647697449 0.07198252528905869 0.706442654132843 -0.5407551527023315 -0.09168779104948044 -2.6195123195648193 -0.7048056125640869 1.1591079235076904 -0.4564956724643707 0.1409965455532074 0.19784796237945557 -11.180291175842285 8.328205108642578 -0.8496649861335754 -0.2082640379667282 35.57870101928711 2.711209774017334 -8.532787322998047 -16.323442459106445 -29.251049041748047 0.3304966688156128 -0.4659899175167084 0.09179025143384933 84.11856079101562 -56.025779724121094 73.54903411865234 5.640552997589111 79.97645568847656 -5.156396865844727 -0.37571749091148376 -1.838266134262085 -1.626616358757019
